<?xml version="1.0" encoding="UTF-8"?>
<svg width="48px" height="26px" viewBox="0 0 48 26" version="1.1" xmlns="http://www.w3.org/2000/svg" xmlns:xlink="http://www.w3.org/1999/xlink">
    <!-- Generator: Sketch 48.2 (47327) - http://www.bohemiancoding.com/sketch -->
    <title>Arrow</title>
    <desc>Created with Sketch.</desc>
    <defs></defs>
    <g id="Wallet-Lunes" stroke="none" stroke-width="1" fill="none" fill-rule="evenodd" transform="translate(-981.000000, -1813.000000)">
        <g id="Group-Copy-2" transform="translate(942.000000, 1763.000000)" fill="#4CD566" fill-rule="nonzero">
            <path d="M72.3769755,51.8913619 C72.3769755,52.3363883 72.5253176,52.8555857 72.8961729,53.226441 L80.7583049,61.088573 L40.8542764,61.088573 C39.8158816,61.088573 39,61.9044546 39,62.9428494 C39,63.9812442 39.8158816,64.7971258 40.8542764,64.7971258 L80.7583049,64.7971258 L72.8961729,72.5850867 C72.5253176,72.955942 72.3769755,73.4009684 72.3769755,73.9201658 C72.3769755,74.4393632 72.5253176,74.8843895 72.8961729,75.2552448 C73.6378834,75.9969553 74.8246204,75.9969553 75.4921599,75.2552448 L86.4694762,64.2779284 C86.5436473,64.2037573 86.6178184,64.0554152 86.6919894,63.9812442 C87.0628447,63.4620468 87.0628447,62.7945073 86.8403315,62.2753099 C86.7661605,62.0527967 86.6178184,61.8302835 86.4694762,61.6819414 L75.4921599,50.5562829 C74.7504493,49.8145724 73.5637124,49.8145724 72.8961729,50.5562829 C72.5253176,50.9271382 72.3769755,51.3721645 72.3769755,51.8913619 Z" id="Arrow"></path>
        </g>
    </g>
</svg>