<?xml version="1.0" encoding="UTF-8"?>
<svg width="48px" height="54px" viewBox="0 0 48 54" version="1.1" xmlns="http://www.w3.org/2000/svg" xmlns:xlink="http://www.w3.org/1999/xlink">
    <!-- Generator: Sketch 48.2 (47327) - http://www.bohemiancoding.com/sketch -->
    <title>ic_alert</title>
    <desc>Created with Sketch.</desc>
    <defs></defs>
    <g id="Wallet-Lunes" stroke="none" stroke-width="1" fill="none" fill-rule="evenodd" transform="translate(-549.000000, -2378.000000)">
        <g id="ic_alert" transform="translate(549.923077, 2378.230769)" fill="#FFFFFF" fill-rule="nonzero">
            <g id="Group">
                <path d="M18.75,6.31422346 C11.2850745,8.23465769 5.76923077,15.0084021 5.76923077,23.0762013 L5.76923077,34.6137084 C5.76923077,35.6767202 4.90551865,36.5384615 3.84816048,36.5384615 C1.7228801,36.5384615 0,38.2647656 0,40.3846154 L0,43.2720864 C0,43.8015523 0.427433365,44.2307692 0.963988654,44.2307692 L45.1898575,44.2307692 C45.7222538,44.2307692 46.1538462,43.7951574 46.1538462,43.2720864 L46.1538462,40.3846154 C46.1538462,38.2604433 44.4228867,36.5384615 42.3056857,36.5384615 C41.2447079,36.5384615 40.3846154,35.6834022 40.3846154,34.6137084 L40.3846154,23.0762013 C40.3846154,15.0115952 34.8699222,8.23531038 27.4038462,6.31429548 L27.4038462,4.32774394 C27.4038462,1.93196904 25.4666167,0 23.0769231,0 C20.692092,0 18.75,1.93759692 18.75,4.32774394 L18.75,6.31422346 Z M16.3461538,46.1538462 L29.8076923,46.1538462 C29.8076923,49.8711473 26.7942242,52.8846154 23.0769231,52.8846154 C19.3596219,52.8846154 16.3461538,49.8711473 16.3461538,46.1538462 Z" id="Shape"></path>
            </g>
        </g>
    </g>
</svg>